<svg>
<defs>
<symbol id="envelope">
<path xmlns="http://www.w3.org/2000/svg" d="M14.5 0H1.50001C0.672854 0 0 0.672853 0 1.50001V10.5C0 11.3271 0.672854 12 1.50001 12H14.5C15.3271 12 16 11.3271 16 10.5V1.50001C16 0.672853 15.3271 0 14.5 0ZM14.5 0.999994C14.5679 0.999994 14.6325 1.01409 14.6916 1.0387L8 6.83838L1.30833 1.0387C1.36742 1.01412 1.43204 0.999994 1.49998 0.999994H14.5ZM14.5 11H1.50001C1.22414 11 0.999996 10.7759 0.999996 10.5V2.09521L7.67236 7.87792C7.76661 7.95944 7.8833 7.99999 8 7.99999C8.1167 7.99999 8.23339 7.95948 8.32764 7.87792L15 2.09521V10.5C15 10.7759 14.7759 11 14.5 11Z" fill="#2196F3"/>
</symbol>

<symbol id="smartphone">
<path xmlns="http://www.w3.org/2000/svg" d="M8.5 0H1.5C0.672848 0 0 0.672848 0 1.5V14.5C0 15.3272 0.672848 16 1.5 16H8.5C9.32715 16 10 15.3272 10 14.5V1.5C10 0.672848 9.32715 0 8.5 0ZM1.5 1H8.5C8.77588 1 9 1.22412 9 1.5V12H1V1.5C1 1.22412 1.22412 1 1.5 1ZM8.5 15H1.5C1.22412 15 1 14.7759 1 14.5V13H9V14.5C9 14.7759 8.77588 15 8.5 15Z" fill="#757575"/>
<path xmlns="http://www.w3.org/2000/svg" d="M2.35355 13.7389C2.54882 13.9213 2.54882 14.2169 2.35355 14.3992C2.15828 14.5816 1.84172 14.5816 1.64645 14.3992C1.45118 14.2169 1.45118 13.9213 1.64645 13.7389C1.84172 13.5566 2.15828 13.5566 2.35355 13.7389Z" fill="#757575"/>
</symbol>

<symbol id="description-item1">
<rect xmlns="http://www.w3.org/2000/svg" width="270" height="120" rx="4" fill="#F5F4FA"/>
<path xmlns="http://www.w3.org/2000/svg" d="M167.316 73.3385L148.847 54.7337L150.897 44.6373C151.426 44.8438 151.988 44.9517 152.556 44.9558H152.57C155.178 44.9866 157.317 42.8974 157.348 40.2893C157.379 37.6812 155.289 35.542 152.681 35.5111C150.073 35.4803 147.934 37.5695 147.903 40.1776C147.897 40.7357 147.989 41.2905 148.176 41.8163L137.326 43.1405L119.628 25.35C119.41 25.1285 119.114 25.0025 118.804 25C118.498 25.0016 118.204 25.1235 117.987 25.3395L114.679 28.6295C114.223 29.0851 114.223 29.8236 114.679 30.2792L116.459 32.0852C109.562 44.7681 111.802 60.4741 121.97 70.7228C122.064 70.8121 122.172 70.8843 122.29 70.9363C122.216 71.3311 122.178 71.7317 122.176 72.1333V85.6667H108.176C104.956 85.6705 102.346 88.28 102.342 91.5V93.8333C102.342 94.4776 102.865 95 103.509 95H157.176C157.82 95 158.342 94.4776 158.342 93.8333V91.5C158.338 88.28 155.729 85.6705 152.509 85.6667H138.509V79.6688C140.702 80.1288 142.937 80.3633 145.178 80.3688C150.555 80.363 155.846 79.0225 160.578 76.4675L162.367 78.2677C162.584 78.4892 162.881 78.6152 163.191 78.6177C163.497 78.6161 163.79 78.4941 164.008 78.2782L167.316 74.9882C167.772 74.5326 167.772 73.7941 167.316 73.3385ZM150.925 38.6348C151.838 37.726 153.316 37.7301 154.224 38.6437C155.133 39.5574 155.129 41.0348 154.215 41.9435C153.778 42.3785 153.186 42.6226 152.569 42.6225H152.562C151.274 42.6158 150.235 41.5658 150.241 40.2771C150.244 39.6602 150.492 39.0699 150.929 38.6348H150.925V38.6348ZM148.178 46.301L146.869 52.7445L144.298 50.158L148.178 46.301ZM146.853 44.3282L142.653 48.5037L139.404 45.237L146.853 44.3282ZM152.509 88C154.442 88 156.009 89.567 156.009 91.5V92.6667H104.676V91.5C104.676 89.567 106.243 88 108.176 88H152.509ZM136.176 83.3333V85.6667H124.509V83.3333H136.176ZM124.509 81V72.1333C124.509 69.303 127.126 67 130.342 67C133.559 67 136.176 69.303 136.176 72.1333V81H124.509ZM138.509 77.29V72.1333C138.509 68.0162 134.846 64.6667 130.342 64.6667C127.431 64.622 124.708 66.1041 123.165 68.5738C114.289 59.2249 112.29 45.2875 118.181 33.8207L158.872 74.7455C152.589 77.9419 145.386 78.8418 138.509 77.29ZM163.204 75.7943L161.56 74.1412L118.792 31.1157L117.141 29.4613L118.792 27.8163L136.15 45.272C136.158 45.272 136.163 45.2872 136.171 45.293L164.859 74.1493L163.204 75.7943Z" fill="#212121"/>
<path xmlns="http://www.w3.org/2000/svg" d="M130.353 69.3333H130.342C128.409 69.3304 126.84 70.895 126.837 72.8281C126.834 74.7611 128.399 76.3304 130.332 76.3333H130.342C132.275 76.3362 133.845 74.7716 133.848 72.8386C133.85 70.9055 132.286 69.3362 130.353 69.3333ZM131.169 73.6605C130.95 73.8789 130.652 74.0012 130.342 74C129.698 73.9966 129.178 73.4716 129.182 72.8273C129.183 72.5189 129.307 72.2237 129.526 72.0062C129.743 71.7902 130.036 71.6683 130.342 71.6667C130.987 71.67 131.506 72.195 131.503 72.8393C131.501 73.1477 131.378 73.4429 131.159 73.6605H131.169Z" fill="#2196F3"/>
</symbol>

<symbol id="description-item2">
<rect xmlns="http://www.w3.org/2000/svg" width="270" height="120" rx="4" fill="#F5F4FA"/>
<g xmlns="http://www.w3.org/2000/svg" clip-path="url(#clip0_2286_764)">
<path d="M168.461 58.4715C168.458 39.9819 153.466 24.9963 134.975 25C116.486 25.0037 101.5 39.9963 101.504 58.4859C101.507 73.0502 110.925 85.9413 124.8 90.3713C124.932 90.413 125.07 90.4343 125.208 90.4338C125.472 90.4333 125.73 90.3628 125.957 90.2287C126.253 90.0541 126.473 89.7764 126.577 89.449L135.032 62.6521C137.343 62.6404 139.207 60.7568 139.194 58.4459C139.183 56.1345 137.3 54.2706 134.988 54.2824C134.367 54.285 133.753 54.4282 133.194 54.7011L122.025 43.5302C121.471 42.9951 120.588 43.0106 120.053 43.5644C119.53 44.1054 119.53 44.962 120.053 45.503L131.216 56.6792C130.36 58.4277 130.849 60.5383 132.39 61.7303L124.334 87.2647C108.414 81.4002 100.262 63.7405 106.126 47.8203C111.991 31.9 129.65 23.7482 145.571 29.6127C161.491 35.4771 169.643 53.1374 163.778 69.0571C160.913 76.8351 155.026 83.1252 147.455 86.4989L146.584 82.3989C146.425 81.6454 145.684 81.1636 144.931 81.3233C144.693 81.3741 144.473 81.4857 144.291 81.6475L135.898 89.1409C135.322 89.653 135.271 90.5347 135.783 91.1105C135.95 91.2974 136.164 91.4362 136.403 91.5126L147.119 94.9327C147.852 95.1682 148.638 94.765 148.873 94.0312C148.948 93.7994 148.96 93.5527 148.91 93.3145L148.055 89.2915C160.445 84.0678 168.49 71.918 168.461 58.4715ZM134.983 57.0766C135.753 57.0766 136.378 57.7014 136.378 58.4715C136.378 59.2422 135.753 59.8665 134.983 59.8665C134.212 59.8665 133.588 59.2422 133.588 58.4715C133.588 57.7014 134.212 57.0766 134.983 57.0766ZM139.577 89.5916L144.355 85.3298L145.674 91.543L139.577 89.5916Z" fill="#212121"/>
<path d="M133.588 31.9673V34.7572C133.588 35.5279 134.212 36.1522 134.983 36.1522C135.753 36.1522 136.378 35.5279 136.378 34.7572V31.9673C136.378 31.1972 135.753 30.5724 134.983 30.5724C134.212 30.5724 133.588 31.1972 133.588 31.9673Z" fill="#2196F3"/>
<path d="M108.479 57.0765C107.708 57.0765 107.084 57.7014 107.084 58.4715C107.084 59.2421 107.708 59.8665 108.479 59.8665H111.269C112.039 59.8665 112.664 59.2421 112.664 58.4715C112.664 57.7014 112.039 57.0765 111.269 57.0765H108.479Z" fill="#2196F3"/>
<path d="M161.487 59.8665C162.257 59.8665 162.881 59.2421 162.881 58.4715C162.881 57.7014 162.257 57.0765 161.487 57.0765H158.697C157.926 57.0765 157.302 57.7014 157.302 58.4715C157.302 59.2421 157.926 59.8665 158.697 59.8665H161.487Z" fill="#2196F3"/>
</g>
<defs xmlns="http://www.w3.org/2000/svg">
<clipPath id="clip0_2286_764">
<rect width="70" height="70" fill="white" transform="translate(100 25)"/>
</clipPath>
</defs>
</symbol>

<symbol id="description-item3">
<rect xmlns="http://www.w3.org/2000/svg" width="270" height="120" rx="4" fill="#F5F4FA"/>
<g xmlns="http://www.w3.org/2000/svg" clip-path="url(#clip0_2286_774)">
<path d="M132.65 57.7351H134.982V68.2296H132.65V57.7351Z" fill="#2196F3"/>
<path d="M141.978 62.3993H144.31V68.2296H141.978V62.3993Z" fill="#2196F3"/>
<path d="M123.321 65.8975H125.653V68.2296H123.321V65.8975Z" fill="#2196F3"/>
<path d="M116.325 64.7314H118.657V68.2295H116.325V64.7314Z" fill="#2196F3"/>
<path d="M103.498 86.8865H159.469C161.401 86.8865 162.967 85.3202 162.967 83.3883V78.7241C162.967 76.7922 161.401 75.2259 159.469 75.2259H158.303V46.1468L164.926 39.8724C166.463 40.6303 168.324 40.1702 169.33 38.7815C170.337 37.3934 170.196 35.4821 168.997 34.2568C167.798 33.0315 165.89 32.8488 164.48 33.8241C163.07 34.8 162.569 36.6498 163.293 38.2036L158.303 42.9345V40.2442C158.303 38.3124 156.736 36.7461 154.805 36.7461H108.162C106.231 36.7461 104.664 38.3124 104.664 40.2442V75.2259H103.498C101.566 75.2259 100 76.7922 100 78.7241V83.3883C100 85.3202 101.566 86.8865 103.498 86.8865ZM166.465 35.58C167.109 35.58 167.631 36.1021 167.631 36.7461C167.631 37.39 167.109 37.9121 166.465 37.9121C165.821 37.9121 165.299 37.39 165.299 36.7461C165.299 36.1021 165.821 35.58 166.465 35.58ZM106.996 40.2442C106.996 39.6003 107.518 39.0782 108.162 39.0782H154.805C155.449 39.0782 155.971 39.6003 155.971 40.2442V45.1413L153.639 47.3573V42.5763C153.639 41.9324 153.116 41.4103 152.473 41.4103H110.495C109.851 41.4103 109.328 41.9324 109.328 42.5763V71.7277C109.328 72.3717 109.851 72.8938 110.495 72.8938H152.473C153.116 72.8938 153.639 72.3717 153.639 71.7277V50.5651L155.971 48.3554V75.2259H106.996V40.2442ZM117.491 55.403C115.913 55.3984 114.528 56.4495 114.108 57.9702C113.689 59.491 114.338 61.104 115.695 61.9091C117.051 62.7142 118.779 62.512 119.913 61.4149L123.966 63.4486C124.437 63.6844 125.008 63.5739 125.358 63.1805L133.974 53.4871L142.444 59.8337C142.899 60.1742 143.533 60.1378 143.945 59.7478L151.306 52.7748V70.5617H111.661V43.7424H151.306V49.5619L143.056 57.3747L134.515 50.9716C134.03 50.6084 133.348 50.6767 132.944 51.1293L124.21 60.9571L120.945 59.3242C120.969 59.1841 120.983 59.0429 120.989 58.9011C120.989 56.9693 119.423 55.403 117.491 55.403ZM118.657 58.9011C118.657 59.5451 118.135 60.0672 117.491 60.0672C116.847 60.0672 116.325 59.5451 116.325 58.9011C116.325 58.2572 116.847 57.7351 117.491 57.7351C118.135 57.7351 118.657 58.2572 118.657 58.9011ZM125.653 77.558H137.314V78.7241C137.314 79.368 136.792 79.8901 136.148 79.8901H126.819C126.175 79.8901 125.653 79.368 125.653 78.7241V77.558ZM102.332 78.7241C102.332 78.0801 102.854 77.558 103.498 77.558H123.321V78.7241C123.321 80.6559 124.887 82.2223 126.819 82.2223H136.148C138.08 82.2223 139.646 80.6559 139.646 78.7241V77.558H159.469C160.113 77.558 160.635 78.0801 160.635 78.7241V83.3883C160.635 84.0323 160.113 84.5544 159.469 84.5544H103.498C102.854 84.5544 102.332 84.0323 102.332 83.3883V78.7241Z" fill="#212121"/>
</g>
<defs xmlns="http://www.w3.org/2000/svg">
<clipPath id="clip0_2286_774">
<rect width="70" height="70" fill="white" transform="translate(100 25)"/>
</clipPath>
</defs>
</symbol>

<symbol id="description-item4">
<rect xmlns="http://www.w3.org/2000/svg" width="270" height="120" rx="4" fill="#F5F4FA"/>
<path xmlns="http://www.w3.org/2000/svg" d="M169.943 34.8964C169.806 34.4752 169.442 34.1673 169.002 34.103L164.823 33.4951L162.953 29.7081C162.561 28.9101 161.253 28.9101 160.861 29.7081L158.991 33.4951L154.811 34.1031C154.372 34.1673 154.008 34.4742 153.869 34.8965C153.732 35.3189 153.845 35.7832 154.164 36.0924L157.189 39.0407L156.475 43.2034C156.401 43.6409 156.58 44.0831 156.938 44.3445C157.301 44.6082 157.775 44.6408 158.168 44.4331L161.906 42.4672L165.644 44.4331C165.815 44.5229 166.002 44.5672 166.188 44.5672C166.429 44.5672 166.671 44.4926 166.874 44.3444C167.233 44.0831 167.413 43.6408 167.337 43.2033L166.623 39.0405L169.648 36.0923C169.965 35.7819 170.08 35.3187 169.943 34.8964ZM164.556 37.7991C164.282 38.0663 164.155 38.4536 164.221 38.8316L164.638 41.2688L162.45 40.1185C162.28 40.0286 162.093 39.9843 161.906 39.9843C161.72 39.9843 161.534 40.0286 161.362 40.1185L159.174 41.2688L159.591 38.8316C159.657 38.4536 159.531 38.0675 159.256 37.7991L157.484 36.0725L159.932 35.7166C160.312 35.6618 160.64 35.4226 160.811 35.0784L161.905 32.8617L162.999 35.0784C163.17 35.4225 163.497 35.6618 163.878 35.7166L166.325 36.0725L164.556 37.7991Z" fill="#2196F3"/>
<path xmlns="http://www.w3.org/2000/svg" d="M157.167 69.8923H154.834V72.2257H157.167V69.8923Z" fill="#2196F3"/>
<path xmlns="http://www.w3.org/2000/svg" d="M157.167 74.5591H154.834V76.8925H157.167V74.5591Z" fill="#2196F3"/>
<path xmlns="http://www.w3.org/2000/svg" d="M159.5 72.2257H157.167V74.5591H159.5V72.2257Z" fill="#2196F3"/>
<path xmlns="http://www.w3.org/2000/svg" d="M154.834 72.2257H152.5V74.5591H154.834V72.2257Z" fill="#2196F3"/>
<path xmlns="http://www.w3.org/2000/svg" d="M149 82.7259H146.667V85.0593H149V82.7259Z" fill="#2196F3"/>
<path xmlns="http://www.w3.org/2000/svg" d="M149 87.3926H146.667V89.726H149V87.3926Z" fill="#2196F3"/>
<path xmlns="http://www.w3.org/2000/svg" d="M151.334 85.0593H149V87.3927H151.334V85.0593Z" fill="#2196F3"/>
<path xmlns="http://www.w3.org/2000/svg" d="M146.667 85.0593H144.333V87.3927H146.667V85.0593Z" fill="#2196F3"/>
<path xmlns="http://www.w3.org/2000/svg" d="M135 78.0592H132.667V80.3926H135V78.0592Z" fill="#2196F3"/>
<path xmlns="http://www.w3.org/2000/svg" d="M135 82.7259H132.667V85.0593H135V82.7259Z" fill="#2196F3"/>
<path xmlns="http://www.w3.org/2000/svg" d="M137.333 80.3925H135V82.7259H137.333V80.3925Z" fill="#2196F3"/>
<path xmlns="http://www.w3.org/2000/svg" d="M132.667 80.3925H130.333V82.7259H132.667V80.3925Z" fill="#2196F3"/>
<path xmlns="http://www.w3.org/2000/svg" d="M112.833 38.3918H110.5V40.7252H112.833V38.3918Z" fill="#2196F3"/>
<path xmlns="http://www.w3.org/2000/svg" d="M112.833 43.0587H110.5V45.3921H112.833V43.0587Z" fill="#2196F3"/>
<path xmlns="http://www.w3.org/2000/svg" d="M115.166 40.7253H112.833V43.0587H115.166V40.7253Z" fill="#2196F3"/>
<path xmlns="http://www.w3.org/2000/svg" d="M110.5 40.7253H108.166V43.0587H110.5V40.7253Z" fill="#2196F3"/>
<path xmlns="http://www.w3.org/2000/svg" d="M154.064 55.9738C153.435 55.1256 152.512 54.5797 151.464 54.4326C150.412 54.2833 149.373 54.5597 148.533 55.2026L145.795 57.3014L145.794 57.3026L141.643 60.4025L138.672 59.2195C143.969 56.843 147.671 51.545 147.671 45.3942C147.671 37.0314 140.84 30.2274 132.444 30.2274C124.047 30.2274 117.216 37.0314 117.216 45.3942C117.216 48.4253 118.123 51.244 119.666 53.6158L113.62 53.5633C113.617 53.5633 113.613 53.5633 113.61 53.5633C113.591 53.5633 113.576 53.5726 113.559 53.5738C113.443 53.5785 113.33 53.6019 113.219 53.6415C113.191 53.652 113.162 53.6579 113.135 53.6706C113.121 53.6765 113.107 53.6776 113.093 53.6846L106.021 57.1764C106.02 57.1764 106.018 57.1764 106.018 57.1775L101.877 59.1693C101.831 59.1891 101.784 59.2159 101.739 59.2463C100.088 60.3452 99.5257 62.5036 100.43 64.2676C100.912 65.2056 101.732 65.8964 102.74 66.2125C103.129 66.3337 103.525 66.3933 103.92 66.3933C104.553 66.3933 105.181 66.2382 105.756 65.9314L108.792 64.3167L113.744 61.7593L116.712 61.7418L104.808 73.5884C104.807 73.5896 104.806 73.5896 104.805 73.5907L101.876 76.5074C101.185 77.1958 100.804 78.1092 100.804 79.0835C100.804 80.0565 101.185 80.9723 101.876 81.6619C102.587 82.3689 103.522 82.7236 104.456 82.7236C105.392 82.7236 106.325 82.3689 107.038 81.6619L109.913 78.7988L113.721 75.9556L115.691 77.9179L111.838 81.7552C111.836 81.7564 111.835 81.7564 111.834 81.7575L108.906 84.6741C108.214 85.3625 107.833 86.276 107.833 87.2502C107.833 88.2233 108.214 89.139 108.906 89.8287C109.616 90.5356 110.552 90.8903 111.486 90.8903C112.421 90.8903 113.357 90.5356 114.068 89.8287L116.998 86.912L121.684 82.2453C121.685 82.2441 121.685 82.243 121.687 82.2417L123.895 80.0542L123.887 80.046C123.901 80.0321 123.921 80.0273 123.935 80.0122L135.235 67.6349L142.828 68.7153C142.883 68.7235 142.938 68.7269 142.993 68.7269C143.134 68.7269 143.27 68.6931 143.402 68.6429C143.441 68.629 143.474 68.6103 143.511 68.5917C143.553 68.5706 143.597 68.559 143.637 68.5322L150.666 63.8655C150.692 63.848 150.706 63.82 150.73 63.8014C150.758 63.7792 150.793 63.7699 150.819 63.7453L153.6 61.1401C155.047 59.7841 155.247 57.5628 154.064 55.9738ZM104.66 63.8722C104.281 64.0752 103.851 64.116 103.439 63.9854C103.03 63.8583 102.699 63.5793 102.505 63.2025C102.153 62.5165 102.357 61.6811 102.974 61.2297L105.848 59.8471L106.54 61.869L106.83 62.7183L104.66 63.8722ZM112.31 59.8741L108.923 61.6241L108.365 59.9907L107.963 58.817L112.397 56.6282L112.31 59.8741ZM145.34 45.3919C145.34 47.4009 144.861 49.2957 144.03 50.9908L134.883 46.8362C134.788 45.5821 134.137 44.4842 133.159 43.8005L136.361 33.1685C141.563 34.823 145.34 39.6752 145.34 45.3919ZM119.552 45.3919C119.552 38.3159 125.336 32.5583 132.446 32.5583C132.999 32.5583 133.54 32.605 134.076 32.6726L130.943 43.0714C130.901 43.0701 130.862 43.0585 130.819 43.0585C128.56 43.0585 126.722 44.8902 126.722 47.1419C126.722 49.3936 128.56 51.2254 130.819 51.2254C132.338 51.2254 133.65 50.3866 134.358 49.1591L142.807 52.9976C140.456 56.1616 136.694 58.2255 132.446 58.2255C125.336 58.2255 119.552 52.4679 119.552 45.3919ZM132.581 47.1419C132.581 48.1068 131.79 48.892 130.819 48.892C129.847 48.892 129.056 48.1068 129.056 47.1419C129.056 46.1771 129.847 45.3919 130.819 45.3919C131.79 45.3919 132.581 46.1771 132.581 47.1419ZM105.392 80.0075C104.875 80.5196 104.038 80.5185 103.523 80.0087C103.274 79.7601 103.138 79.4324 103.138 79.0835C103.138 78.7358 103.274 78.408 103.523 78.1619L105.627 76.0652L107.489 77.9192L105.392 80.0075ZM112.422 88.1743C111.905 88.6865 111.068 88.6877 110.552 88.1756C110.303 87.927 110.167 87.5993 110.167 87.2504C110.167 86.9027 110.303 86.5748 110.552 86.3287L112.658 84.231L113.539 85.1073L114.521 86.085L112.422 88.1743ZM120.038 80.5862C120.037 80.5873 120.036 80.5873 120.035 80.5885L116.174 84.4386L115.293 83.5623L114.311 82.5846L118.168 78.7451C118.168 78.7451 118.168 78.7451 118.168 78.744C118.169 78.7428 118.17 78.7428 118.172 78.7417C118.259 78.6542 118.314 78.5492 118.368 78.4454C118.383 78.4151 118.412 78.3894 118.425 78.3579C118.461 78.2681 118.467 78.1713 118.481 78.0767C118.488 78.0229 118.511 77.9729 118.511 77.9179C118.511 77.8397 118.483 77.764 118.467 77.6869C118.453 77.6169 118.453 77.5457 118.426 77.4781C118.382 77.3685 118.306 77.2717 118.227 77.1771C118.204 77.1514 118.196 77.1187 118.172 77.0942C118.172 77.0942 118.172 77.0942 118.17 77.0942C118.169 77.0931 118.169 77.0906 118.168 77.0896L114.653 73.5895C114.616 73.5522 114.568 73.537 114.526 73.5056C114.464 73.4577 114.405 73.4134 114.336 73.3795C114.269 73.3468 114.201 73.327 114.131 73.3083C114.057 73.2872 113.984 73.2709 113.906 73.2651C113.835 73.2604 113.769 73.2674 113.698 73.2756C113.619 73.2849 113.546 73.2954 113.47 73.3199C113.396 73.3433 113.331 73.3794 113.264 73.4179C113.22 73.4424 113.171 73.4506 113.131 73.4809L109.251 76.3767L107.281 74.4143L112.529 69.1946L122.067 78.576L120.038 80.5862ZM134.954 65.2372C134.921 65.2326 134.889 65.2454 134.855 65.2431C134.77 65.2385 134.689 65.2443 134.603 65.2583C134.537 65.2699 134.474 65.2828 134.411 65.3049C134.336 65.3306 134.269 65.3656 134.2 65.4076C134.134 65.4472 134.075 65.4892 134.018 65.5417C133.99 65.5662 133.956 65.5779 133.93 65.6058L123.653 76.8621L114.185 67.5507L120.382 61.3859C120.839 60.9309 120.841 60.1924 120.386 59.735C120.156 59.5052 119.854 59.392 119.552 59.3932V59.3921L114.698 59.4213L114.759 55.9049L121.549 55.9633C124.317 58.7937 128.176 60.5589 132.446 60.5589C133.403 60.5589 134.336 60.4598 135.245 60.2905C135.332 60.3605 135.419 60.4318 135.528 60.4761L140.8 62.5761L141.133 64.2351L141.523 66.1717L134.954 65.2372ZM143.794 65.6269L143.11 62.219L146.274 59.8564L147.102 60.9554L148.345 62.6051L143.794 65.6269ZM152.005 59.4341L150.173 61.1515L148.136 58.4471L149.954 57.053C150.294 56.7917 150.722 56.6855 151.142 56.7403C151.564 56.7998 151.938 57.0203 152.192 57.3621C152.666 58.0003 152.585 58.8905 152.005 59.4341Z" fill="#212121"/>
<path xmlns="http://www.w3.org/2000/svg" d="M129.755 65.5651L125.067 60.8984C124.613 60.4446 123.876 60.4446 123.421 60.8984L118.734 65.5651C118.515 65.7856 118.391 66.0819 118.391 66.3922C118.391 66.7026 118.513 67.0001 118.734 67.2194L123.421 71.8861C123.648 72.1124 123.947 72.2256 124.244 72.2256C124.542 72.2256 124.84 72.1124 125.067 71.8861L129.755 67.2194C129.974 67.0001 130.099 66.7026 130.099 66.3922C130.099 66.0819 129.975 65.7844 129.755 65.5651ZM124.244 69.4128L121.211 66.3922L124.244 63.3717L127.279 66.3922L124.244 69.4128Z" fill="#212121"/>
<path xmlns="http://www.w3.org/2000/svg" d="M137.547 36.0923L136.983 38.3581C137.138 38.3966 140.784 39.3463 140.784 43.0587H143.118C143.118 38.6461 139.474 36.5718 137.547 36.0923Z" fill="#212121"/>
<path xmlns="http://www.w3.org/2000/svg" d="M143.118 45.3919H140.784V47.7253H143.118V45.3919Z" fill="#212121"/>
</symbol>

<symbol id="instagram">
<path xmlns="http://www.w3.org/2000/svg" d="M44 21.9999C44 28.0751 41.5376 33.5751 37.5564 37.5563C33.5751 41.5375 28.0751 43.9999 22 43.9999C15.9249 43.9999 10.4249 41.5375 6.44365 37.5563C2.46243 33.5751 0 28.0751 0 21.9999C0 15.9248 2.46243 10.4248 6.44365 6.44359C10.4249 2.46237 15.9249 -6.10352e-05 22 -6.10352e-05C28.0751 -6.10352e-05 33.5751 2.46237 37.5564 6.44359C41.5376 10.4248 44 15.9248 44 21.9999Z" fill="#2196F3"/>
<g xmlns="http://www.w3.org/2000/svg" clip-path="url(#clip0_2286_874)">
<path d="M31.9804 17.8801C31.9336 16.8174 31.7617 16.0868 31.5156 15.4537C31.2616 14.7818 30.8709 14.1801 30.359 13.68C29.8589 13.1721 29.2533 12.7774 28.5891 12.5274C27.9524 12.2813 27.2256 12.1094 26.163 12.0626C25.0924 12.0118 24.7525 12 22.0371 12C19.3217 12 18.9818 12.0118 17.9152 12.0586C16.8525 12.1055 16.1219 12.2775 15.489 12.5235C14.8169 12.7774 14.2153 13.1681 13.7152 13.68C13.2073 14.1801 12.8127 14.7857 12.5626 15.4499C12.3164 16.0868 12.1446 16.8134 12.0977 17.8761C12.0469 18.9467 12.0352 19.2866 12.0352 22.002C12.0352 24.7173 12.0469 25.0572 12.0938 26.1239C12.1406 27.1865 12.3126 27.9171 12.5588 28.5502C12.8127 29.2221 13.2073 29.8238 13.7152 30.3239C14.2153 30.8318 14.8209 31.2265 15.4851 31.4765C16.1219 31.7226 16.8486 31.8945 17.9114 31.9413C18.9779 31.9883 19.3179 31.9999 22.0333 31.9999C24.7487 31.9999 25.0885 31.9883 26.1552 31.9413C27.2179 31.8945 27.9484 31.7226 28.5813 31.4765C29.9254 30.9568 30.9881 29.8941 31.5078 28.5502C31.7538 27.9133 31.9258 27.1865 31.9727 26.1239C32.0195 25.0572 32.0313 24.7173 32.0313 22.002C32.0313 19.2866 32.0273 18.9467 31.9804 17.8801ZM30.1794 26.0457C30.1364 27.0225 29.9723 27.5499 29.8356 27.9015C29.4995 28.7728 28.808 29.4643 27.9367 29.8004C27.5851 29.9372 27.0538 30.1012 26.0809 30.1441C25.026 30.1911 24.7096 30.2027 22.0411 30.2027C19.3726 30.2027 19.0522 30.1911 18.0011 30.1441C17.0244 30.1012 16.4969 29.9372 16.1453 29.8004C15.7117 29.6402 15.317 29.3862 14.9967 29.0541C14.6646 28.7298 14.4106 28.3391 14.2504 27.9055C14.1137 27.5539 13.9496 27.0225 13.9067 26.0497C13.8597 24.9948 13.8481 24.6783 13.8481 22.0097C13.8481 19.3412 13.8597 19.0209 13.9067 17.9699C13.9496 16.9932 14.1137 16.4657 14.2504 16.1141C14.4106 15.6804 14.6646 15.2859 15.0007 14.9654C15.3248 14.6333 15.7155 14.3793 16.1493 14.2192C16.5009 14.0825 17.0323 13.9184 18.0051 13.8754C19.06 13.8285 19.3765 13.8168 22.0449 13.8168C24.7174 13.8168 25.0337 13.8285 26.0848 13.8754C27.0616 13.9184 27.589 14.0825 27.9407 14.2192C28.3742 14.3793 28.7689 14.6333 29.0893 14.9654C29.4213 15.2897 29.6753 15.6804 29.8356 16.1141C29.9723 16.4657 30.1364 16.997 30.1794 17.9699C30.2263 19.0248 30.238 19.3412 30.238 22.0097C30.238 24.6783 30.2263 24.9908 30.1794 26.0457Z" fill="white"/>
<path d="M22.0371 16.8642C19.2007 16.8642 16.8994 19.1654 16.8994 22.0019C16.8994 24.8385 19.2007 27.1396 22.0371 27.1396C24.8737 27.1396 27.1749 24.8385 27.1749 22.0019C27.1749 19.1654 24.8737 16.8642 22.0371 16.8642ZM22.0371 25.3346C20.197 25.3346 18.7044 23.8422 18.7044 22.0019C18.7044 20.1617 20.197 18.6692 22.0371 18.6692C23.8774 18.6692 25.3698 20.1617 25.3698 22.0019C25.3698 23.8422 23.8774 25.3346 22.0371 25.3346Z" fill="white"/>
<path d="M28.5775 16.6611C28.5775 17.3235 28.0404 17.8605 27.3779 17.8605C26.7155 17.8605 26.1785 17.3235 26.1785 16.6611C26.1785 15.9986 26.7155 15.4617 27.3779 15.4617C28.0404 15.4617 28.5775 15.9986 28.5775 16.6611Z" fill="white"/>
</g>
<defs xmlns="http://www.w3.org/2000/svg">
<clipPath id="clip0_2286_874">
<rect width="20" height="20" fill="white" transform="translate(12 12)"/>
</clipPath>
</defs>
</symbol>

<symbol id="twitter">
<path xmlns="http://www.w3.org/2000/svg" d="M44 21.9999C44 28.0751 41.5376 33.5751 37.5564 37.5563C33.5751 41.5375 28.0751 43.9999 22 43.9999C15.9249 43.9999 10.4249 41.5375 6.44365 37.5563C2.46243 33.5751 0 28.0751 0 21.9999C0 15.9248 2.46243 10.4248 6.44365 6.44359C10.4249 2.46237 15.9249 -6.10352e-05 22 -6.10352e-05C28.0751 -6.10352e-05 33.5751 2.46237 37.5564 6.44359C41.5376 10.4248 44 15.9248 44 21.9999Z" fill="white"/>
<g xmlns="http://www.w3.org/2000/svg" clip-path="url(#clip0_2286_868)">
<path d="M32 15.7988C31.2563 16.125 30.4637 16.3412 29.6375 16.4462C30.4875 15.9388 31.1363 15.1412 31.4412 14.18C30.6488 14.6525 29.7738 14.9863 28.8412 15.1725C28.0887 14.3713 27.0162 13.875 25.8462 13.875C23.5763 13.875 21.7487 15.7175 21.7487 17.9763C21.7487 18.3012 21.7762 18.6137 21.8438 18.9112C18.435 18.745 15.4188 17.1113 13.3925 14.6225C13.0387 15.2363 12.8313 15.9388 12.8313 16.695C12.8313 18.115 13.5625 19.3737 14.6525 20.1025C13.9937 20.09 13.3475 19.8988 12.8 19.5975C12.8 19.61 12.8 19.6262 12.8 19.6425C12.8 21.635 14.2212 23.29 16.085 23.6712C15.7512 23.7625 15.3875 23.8062 15.01 23.8062C14.7475 23.8062 14.4825 23.7913 14.2337 23.7362C14.765 25.36 16.2725 26.5538 18.065 26.5925C16.67 27.6838 14.8988 28.3412 12.9813 28.3412C12.645 28.3412 12.3225 28.3263 12 28.285C13.8162 29.4563 15.9688 30.125 18.29 30.125C25.835 30.125 29.96 23.875 29.96 18.4575C29.96 18.2762 29.9538 18.1013 29.945 17.9275C30.7588 17.35 31.4425 16.6288 32 15.7988Z" fill="#AFB1B8"/>
</g>
<defs xmlns="http://www.w3.org/2000/svg">
<clipPath id="clip0_2286_868">
<rect width="20" height="20" fill="white" transform="translate(12 12)"/>
</clipPath>
</defs>
</symbol>

<symbol id="facebook">
<path xmlns="http://www.w3.org/2000/svg" d="M44 21.9999C44 28.0751 41.5376 33.5751 37.5564 37.5563C33.5751 41.5375 28.0751 43.9999 22 43.9999C15.9249 43.9999 10.4249 41.5375 6.44365 37.5563C2.46243 33.5751 0 28.0751 0 21.9999C0 15.9248 2.46243 10.4248 6.44365 6.44359C10.4249 2.46237 15.9249 -6.10352e-05 22 -6.10352e-05C28.0751 -6.10352e-05 33.5751 2.46237 37.5564 6.44359C41.5376 10.4248 44 15.9248 44 21.9999Z" fill="white"/>
<g xmlns="http://www.w3.org/2000/svg" clip-path="url(#clip0_2286_864)">
<path d="M25.3309 15.3208H27.1567V12.1408C26.8417 12.0975 25.7584 12 24.4967 12C21.8642 12 20.0609 13.6558 20.0609 16.6992V19.5H17.1559V23.055H20.0609V32H23.6226V23.0558H26.4101L26.8526 19.5008H23.6217V17.0517C23.6226 16.0242 23.8992 15.3208 25.3309 15.3208Z" fill="#AFB1B8"/>
</g>
<defs xmlns="http://www.w3.org/2000/svg">
<clipPath id="clip0_2286_864">
<rect width="20" height="20" fill="white" transform="translate(12 12)"/>
</clipPath>
</defs>
</symbol>

<symbol id="linkedin">
<path xmlns="http://www.w3.org/2000/svg" d="M44 21.9999C44 28.0751 41.5376 33.5751 37.5564 37.5563C33.5751 41.5375 28.0751 43.9999 22 43.9999C15.9249 43.9999 10.4249 41.5375 6.44365 37.5563C2.46243 33.5751 0 28.0751 0 21.9999C0 15.9248 2.46243 10.4248 6.44365 6.44359C10.4249 2.46237 15.9249 -6.10352e-05 22 -6.10352e-05C28.0751 -6.10352e-05 33.5751 2.46237 37.5564 6.44359C41.5376 10.4248 44 15.9248 44 21.9999Z" fill="white"/>
<g xmlns="http://www.w3.org/2000/svg" clip-path="url(#clip0_2286_858)">
<path d="M31.9951 32V31.9992H32.0001V24.6642C32.0001 21.0759 31.2276 18.3117 27.0326 18.3117C25.0159 18.3117 23.6626 19.4184 23.1101 20.4675H23.0517V18.6467H19.0742V31.9992H23.2159V25.3875C23.2159 23.6467 23.5459 21.9634 25.7017 21.9634C27.8259 21.9634 27.8576 23.95 27.8576 25.4992V32H31.9951Z" fill="#AFB1B8"/>
<path d="M12.33 18.6475H16.4766V32H12.33V18.6475Z" fill="#AFB1B8"/>
<path d="M14.4017 12C13.0758 12 12 13.0758 12 14.4017C12 15.7275 13.0758 16.8258 14.4017 16.8258C15.7275 16.8258 16.8033 15.7275 16.8033 14.4017C16.8025 13.0758 15.7267 12 14.4017 12V12Z" fill="#AFB1B8"/>
</g>
<defs xmlns="http://www.w3.org/2000/svg">
<clipPath id="clip0_2286_858">
<rect width="20" height="20" fill="white" transform="translate(12 12)"/>
</clipPath>
</defs>
</symbol>

<symbol id="client1">
<rect xmlns="http://www.w3.org/2000/svg" x="0.5" y="0.5" width="169" height="91" rx="3.5" stroke="#AFB1B8"/>
<path xmlns="http://www.w3.org/2000/svg" fill-rule="evenodd" clip-rule="evenodd" d="M70 24.7131L77.0078 31.3473L64 31.3396V63.5269H98V51.2202L105 57.8469V24.7131H70ZM97.6924 50.4415L77.8226 31.6311H97.6924V50.4415ZM91.5231 58.8187H69.3801V37.1711H70.9453V57.3528H91.5231V58.8187ZM74.6089 67.8123L73.791 69.4968L72.9731 67.8123H72.2871L73.481 70.0583V71.3669H74.1011V70.0583L75.2925 67.8123H74.6089ZM75.6367 71.3669L75.9248 70.5393H77.3018L77.5923 71.3669H78.2368L76.8916 67.8123H76.3374L74.9946 71.3669H75.6367ZM76.6133 68.5667L77.1284 70.0413H76.0981L76.6133 68.5667ZM79.8701 69.9558C79.7806 70.0925 79.7358 70.2431 79.7358 70.4075C79.7358 70.707 79.8408 70.9503 80.0508 71.1375C80.2624 71.323 80.5439 71.4158 80.8955 71.4158C81.2471 71.4158 81.5498 71.3206 81.8037 71.1301L82.0039 71.3669H82.6924L82.1699 70.7493C82.375 70.4693 82.4775 70.1104 82.4775 69.6726H81.9624C81.9624 69.9119 81.9128 70.1292 81.8135 70.3245L81.1274 69.5139L81.3691 69.3381C81.54 69.2144 81.6629 69.0907 81.7378 68.967C81.8127 68.8417 81.8501 68.705 81.8501 68.5569C81.8501 68.3323 81.7671 68.1443 81.6011 67.9929C81.4367 67.8399 81.2251 67.7634 80.9663 67.7634C80.6798 67.7634 80.452 67.8448 80.2827 68.0076C80.1134 68.1687 80.0288 68.3884 80.0288 68.6667C80.0288 68.7807 80.0557 68.8987 80.1094 69.0208C80.1647 69.1428 80.2616 69.2909 80.3999 69.4651C80.1362 69.6539 79.9596 69.8175 79.8701 69.9558ZM81.4741 70.7419C81.3 70.8754 81.1128 70.9421 80.9126 70.9421C80.7352 70.9421 80.5936 70.8909 80.4878 70.7883C80.382 70.6858 80.3291 70.5523 80.3291 70.3879C80.3291 70.1975 80.4268 70.0282 80.6221 69.8801L80.6978 69.8264L81.4741 70.7419ZM80.8369 69.1672C80.6693 68.9605 80.5854 68.7888 80.5854 68.6521C80.5854 68.5333 80.6196 68.4348 80.688 68.3567C80.7563 68.2786 80.8483 68.2395 80.9639 68.2395C81.0713 68.2395 81.16 68.2729 81.23 68.3396C81.3 68.4047 81.335 68.4836 81.335 68.5764C81.335 68.7164 81.2845 68.8311 81.1836 68.9207L81.1079 68.9817L80.8369 69.1672ZM86.623 71.0984C86.8672 70.8852 87.0072 70.5889 87.043 70.2097H86.4277C86.3952 70.4636 86.3179 70.6451 86.1958 70.7542C86.0737 70.8632 85.8914 70.9177 85.6489 70.9177C85.3836 70.9177 85.1818 70.8168 85.0435 70.615C84.9067 70.4132 84.8384 70.1202 84.8384 69.7361V69.4211C84.8416 69.0419 84.9149 68.7546 85.0581 68.5593C85.203 68.3624 85.4097 68.2639 85.6782 68.2639C85.9093 68.2639 86.0843 68.3209 86.2031 68.4348C86.3236 68.5471 86.3984 68.731 86.4277 68.9866H87.043C87.0039 68.5976 86.8647 68.2965 86.6255 68.0833C86.3862 67.87 86.0705 67.7634 85.6782 67.7634C85.3869 67.7634 85.1297 67.8326 84.9067 67.9709C84.6854 68.1093 84.5153 68.3062 84.3965 68.5618C84.2777 68.8173 84.2183 69.1127 84.2183 69.448V69.78C84.2231 70.1072 84.2842 70.3945 84.4014 70.6418C84.5186 70.8892 84.6846 71.0805 84.8994 71.2156C85.1159 71.349 85.3657 71.4158 85.6489 71.4158C86.0542 71.4158 86.3789 71.31 86.623 71.0984ZM90.2534 70.6003C90.3739 70.3367 90.4341 70.0307 90.4341 69.6824V69.4846C90.4325 69.1379 90.3706 68.8344 90.2485 68.574C90.1265 68.3119 89.9531 68.1117 89.7285 67.9734C89.5055 67.8334 89.2492 67.7634 88.9595 67.7634C88.6698 67.7634 88.4126 67.8342 88.188 67.9758C87.965 68.1158 87.7917 68.3184 87.668 68.5837C87.5459 68.849 87.4849 69.155 87.4849 69.5017V69.7019C87.4865 70.0421 87.5483 70.3424 87.6704 70.6028C87.7941 70.8632 87.9683 71.0642 88.1929 71.2058C88.4191 71.3458 88.6763 71.4158 88.9644 71.4158C89.2557 71.4158 89.5129 71.3458 89.7358 71.2058C89.9604 71.0642 90.133 70.8624 90.2534 70.6003ZM89.5918 68.5911C89.7415 68.801 89.8164 69.1029 89.8164 69.4968V69.6824C89.8164 70.0828 89.7423 70.3871 89.5942 70.5955C89.4478 70.8038 89.2378 70.908 88.9644 70.908C88.6942 70.908 88.4826 70.8013 88.3296 70.5881C88.1782 70.3749 88.1025 70.073 88.1025 69.6824V69.4773C88.1058 69.0948 88.1823 68.7994 88.332 68.5911C88.4834 68.3811 88.6925 68.2761 88.9595 68.2761C89.2329 68.2761 89.4437 68.3811 89.5918 68.5911Z" fill="#AFB1B8"/>
</symbol>

<symbol id="client2">
<rect xmlns="http://www.w3.org/2000/svg" x="0.5" y="0.5" width="169" height="91" rx="3.5" stroke="#AFB1B8"/>
<path xmlns="http://www.w3.org/2000/svg" fill-rule="evenodd" clip-rule="evenodd" d="M82.1136 23.6477H81.977C81.7671 23.6349 81.5571 23.6299 81.3471 23.6248H81.3471H81.3269H80.8918C80.4946 23.6248 80.0898 23.6349 79.6876 23.6553C79.6573 23.6531 79.6269 23.6531 79.5966 23.6553C75.9522 23.8618 72.3817 24.7726 69.0805 26.3381L68.6479 26.5466V48.6877L69.6598 48.3444C70.5477 48.0393 71.4938 47.7646 72.4728 47.5103C75.1193 46.8309 77.8367 46.4699 80.568 46.4347V49.3438C80.2062 49.3463 79.8546 49.3565 79.503 49.3743H79.4195C77.3175 49.4896 75.2317 49.8098 73.1913 50.3304C70.6072 50.9774 68.1143 51.9488 65.7716 53.2217V24.825C68.2047 23.4059 70.8253 22.34 73.5556 21.6591C75.9527 21.0402 78.4169 20.7224 80.8918 20.7131H81.3193C81.8303 20.7258 82.3287 20.7487 82.7967 20.7843C84.0297 20.8709 85.2528 21.0658 86.4521 21.3667V24.23C85.2874 23.9586 84.1032 23.7801 82.9105 23.696C82.8863 23.6939 82.8621 23.6919 82.8379 23.6898C82.5911 23.6687 82.344 23.6477 82.1136 23.6477ZM87.1528 26.5745C87.7877 26.6228 88.4455 26.6457 89.1108 26.6457C91.7125 26.6362 94.3031 26.304 96.8239 25.6565C99.4068 25.0071 101.899 24.0349 104.241 22.7627V50.6533C101.807 52.0716 99.1853 53.1375 96.4546 53.8193C94.0571 54.4358 91.5931 54.7527 89.1184 54.7627C87.2433 54.7778 85.3737 54.5574 83.553 54.1066V26.0354C83.983 26.1346 84.4257 26.2261 84.876 26.3024C85.6147 26.427 86.3939 26.5186 87.1528 26.5745ZM101.347 26.7907L100.335 27.1314C99.4042 27.4442 98.4657 27.7239 97.5221 27.9731C94.7749 28.6791 91.9514 29.0412 89.1158 29.0513C88.4556 29.0513 87.8485 29.0335 87.2616 28.9954L86.4546 28.942V49.031V51.7188L87.1477 51.7799C87.7903 51.8358 88.4531 51.8638 89.1209 51.8638C91.3544 51.8543 93.5781 51.5664 95.7412 51.0068C97.5223 50.56 99.2552 49.9374 100.914 49.1479L101.347 48.9394V26.7907Z" fill="#AFB1B8"/>
<path xmlns="http://www.w3.org/2000/svg" d="M67.7371 62.9255C67.5917 62.7746 67.4163 62.6562 67.2224 62.5777C67.0284 62.4993 66.8203 62.4627 66.6114 62.4703C66.3888 62.4674 66.1678 62.5089 65.9613 62.5924C65.7719 62.6678 65.5998 62.7812 65.4553 62.9255C65.3125 63.0703 65.2013 63.2436 65.129 63.4341C65.0497 63.6338 65.0101 63.8472 65.0126 64.0622V67.8562C65.0036 68.1236 65.0546 68.3895 65.1619 68.6344C65.2514 68.8288 65.3807 69.0021 65.5413 69.1429C65.693 69.2706 65.871 69.3627 66.0625 69.4125C66.2469 69.4643 66.4376 69.4909 66.6291 69.4913C66.8404 69.4934 67.0495 69.4483 67.2413 69.3591C67.4309 69.2761 67.6028 69.1569 67.7473 69.0082C67.8881 68.8608 68.0005 68.6883 68.0786 68.4996C68.1597 68.3083 68.201 68.1023 68.2001 67.8944V67.4697H67.2084V67.8079C67.2114 67.9234 67.1916 68.0383 67.1502 68.1461C67.1179 68.2269 67.0688 68.2997 67.006 68.3597C66.9446 68.4094 66.8742 68.4465 66.7986 68.4691C66.7316 68.4914 66.6617 68.5034 66.5912 68.5047C66.5026 68.515 66.413 68.5016 66.3312 68.4659C66.2495 68.4301 66.1786 68.3734 66.1257 68.3012C66.0322 68.1488 65.9864 67.9716 65.9942 67.7927V64.2555C65.988 64.0593 66.0297 63.8646 66.1156 63.6884C66.1671 63.6083 66.2399 63.5444 66.3258 63.5039C66.4117 63.4635 66.5071 63.4481 66.6013 63.4595C66.6868 63.4565 66.7717 63.4743 66.8488 63.5115C66.9259 63.5487 66.9929 63.6042 67.044 63.6731C67.155 63.8188 67.213 63.9983 67.2084 64.1817V64.5098H68.19V64.1232C68.1919 63.8962 68.1507 63.671 68.0685 63.4595C67.9953 63.2608 67.8825 63.0791 67.7371 62.9255Z" fill="#AFB1B8"/>
<path xmlns="http://www.w3.org/2000/svg" d="M73.6289 62.8822C73.3127 62.6152 72.9136 62.4677 72.5007 62.4652C72.2987 62.4661 72.0984 62.5022 71.9087 62.572C71.7161 62.641 71.5384 62.7463 71.3851 62.8822C71.2208 63.0299 71.0897 63.2111 71.0005 63.4137C70.9006 63.6455 70.8515 63.8961 70.8563 64.1486V67.7875C70.8495 68.0435 70.8987 68.2979 71.0005 68.5326C71.0903 68.7283 71.2215 68.9019 71.3851 69.0412C71.5367 69.1819 71.7147 69.2909 71.9087 69.3616C72.0984 69.4314 72.2987 69.4675 72.5007 69.4684C72.7027 69.468 72.9031 69.4319 73.0926 69.3616C73.29 69.2899 73.4719 69.1812 73.6289 69.0412C73.7871 68.8993 73.9145 68.7261 74.0033 68.5326C74.1051 68.2979 74.1544 68.0435 74.1475 67.7875V64.1486C74.1524 63.8961 74.1032 63.6455 74.0033 63.4137C73.9151 63.2132 73.7878 63.0325 73.6289 62.8822ZM73.166 67.7875C73.1743 67.8845 73.1609 67.9821 73.1268 68.0732C73.0926 68.1643 73.0386 68.2466 72.9687 68.3139C72.8377 68.4238 72.6725 68.4839 72.5019 68.4839C72.3313 68.4839 72.1662 68.4238 72.0352 68.3139C71.9652 68.2466 71.9112 68.1643 71.8771 68.0732C71.8429 67.9821 71.8295 67.8845 71.8379 67.7875V64.1486C71.8295 64.0516 71.8429 63.954 71.8771 63.8629C71.9112 63.7718 71.9652 63.6896 72.0352 63.6222C72.1662 63.5124 72.3313 63.4522 72.5019 63.4522C72.6725 63.4522 72.8377 63.5124 72.9687 63.6222C73.0386 63.6896 73.0926 63.7718 73.1268 63.8629C73.1609 63.954 73.1743 64.0516 73.166 64.1486V67.7875Z" fill="#AFB1B8"/>
<path xmlns="http://www.w3.org/2000/svg" d="M81.3673 69.4125V62.5238H80.4136L79.1614 66.1703H79.1437L77.8813 62.5238H76.9377V69.4125H77.9218V65.2218H77.9395L78.9033 68.1843H79.3941L80.3655 65.2218H80.3832V69.4125H81.3673Z" fill="#AFB1B8"/>
<path xmlns="http://www.w3.org/2000/svg" d="M86.9581 63.0068C86.8065 62.8368 86.6153 62.7075 86.4015 62.6304C86.1712 62.5555 85.9302 62.5194 85.6881 62.5236H84.226V69.4124H85.2075V66.722H85.7134C86.0197 66.7359 86.3244 66.6712 86.5988 66.5338C86.822 66.4099 87.0081 66.2281 87.1377 66.0074C87.2512 65.8242 87.3277 65.6203 87.3628 65.4073C87.4014 65.1481 87.4192 64.8862 87.4159 64.6241C87.4255 64.2933 87.3932 63.9626 87.3198 63.64C87.2543 63.4016 87.1299 63.1838 86.9581 63.0068ZM86.4521 65.1072C86.4479 65.232 86.4168 65.3543 86.361 65.4658C86.3049 65.5717 86.2162 65.6565 86.1081 65.7074C85.9627 65.7724 85.8041 65.802 85.6451 65.7938H85.1974V63.4518H85.7033C85.8557 63.4443 86.0075 63.474 86.146 63.5383C86.2475 63.5965 86.3281 63.6855 86.3762 63.7926C86.4299 63.9136 86.4591 64.0441 86.4622 64.1765C86.4622 64.3215 86.4622 64.4741 86.4622 64.6343C86.4622 64.7945 86.4723 64.9598 86.4622 65.1072H86.4521Z" fill="#AFB1B8"/>
<path xmlns="http://www.w3.org/2000/svg" d="M91.6077 62.5238H90.8032L89.2854 69.4125H90.2669L90.5553 67.9326H91.8935L92.1819 69.4125H93.1635L91.6077 62.5238ZM90.702 66.9942L91.1852 64.4971H91.2029L91.6836 66.9942H90.702Z" fill="#AFB1B8"/>
<path xmlns="http://www.w3.org/2000/svg" d="M97.9497 66.6738H97.932L96.4496 62.5238H95.506V69.4125H96.4875V65.2701H96.5078L98.0079 69.4125H98.9312V62.5238H97.9497V66.6738Z" fill="#AFB1B8"/>
<path xmlns="http://www.w3.org/2000/svg" d="M103.948 62.5238L103.158 65.2625H103.138L102.349 62.5238H101.309L102.657 66.5009V69.4125H103.639V66.5009L104.987 62.5238H103.948Z" fill="#AFB1B8"/>
<path xmlns="http://www.w3.org/2000/svg" d="M65 71.3577H65.4731V72.6851H65.7943V71.3577H66.2649V71.0856H65V71.3577Z" fill="#AFB1B8"/>
<path xmlns="http://www.w3.org/2000/svg" d="M68.9767 71.0856L68.3569 72.6851H68.6984L68.83 72.3214H69.4675L69.6041 72.6851H69.9532L69.3182 71.0856H68.9767ZM68.9261 72.0519L69.1437 71.4594L69.3612 72.0519H68.9261Z" fill="#AFB1B8"/>
<path xmlns="http://www.w3.org/2000/svg" d="M72.9079 72.0953H73.2773V72.3012C73.1694 72.3877 73.0358 72.4352 72.8978 72.436C72.8333 72.4396 72.7689 72.4277 72.7099 72.4011C72.6509 72.3746 72.5991 72.3342 72.5588 72.2834C72.474 72.1617 72.4322 72.0149 72.4399 71.8664C72.4399 71.5104 72.5942 71.3324 72.9003 71.3324C72.9809 71.3244 73.0617 71.3456 73.128 71.3922C73.1944 71.4389 73.2419 71.5079 73.2621 71.5867L73.5783 71.5257C73.51 71.2129 73.2849 71.0552 72.9003 71.0552C72.6947 71.0497 72.4947 71.1234 72.3413 71.2612C72.2607 71.3408 72.1983 71.4371 72.1586 71.5433C72.1188 71.6496 72.1026 71.7633 72.1111 71.8766C72.1017 72.0954 72.1749 72.3097 72.316 72.4767C72.3943 72.5575 72.4892 72.6202 72.594 72.6606C72.6988 72.701 72.8111 72.7181 72.9231 72.7106C73.1734 72.7176 73.4165 72.6264 73.6011 72.4564V71.8257H72.9079V72.0953Z" fill="#AFB1B8"/>
<path xmlns="http://www.w3.org/2000/svg" d="M76.9226 71.0856H76.5988V72.6851H77.7194V72.413H76.9226V71.0856Z" fill="#AFB1B8"/>
<path xmlns="http://www.w3.org/2000/svg" d="M80.3175 71.0856H79.9937V72.6851H80.3175V71.0856Z" fill="#AFB1B8"/>
<path xmlns="http://www.w3.org/2000/svg" d="M83.6365 72.1536L82.9813 71.0856H82.6676V72.6851H82.9686V71.6399L83.6112 72.6851H83.9325V71.0856H83.6365V72.1536Z" fill="#AFB1B8"/>
<path xmlns="http://www.w3.org/2000/svg" d="M86.6368 71.9807H87.4337V71.7086H86.6368V71.3577H87.4944V71.0856H86.313V72.6851H87.5273V72.413H86.6368V71.9807Z" fill="#AFB1B8"/>
<path xmlns="http://www.w3.org/2000/svg" d="M93.9122 71.7162H93.2823V71.0856H92.9611V72.6851H93.2823V71.9858H93.9122V72.6851H94.2335V71.0856H93.9122V71.7162Z" fill="#AFB1B8"/>
<path xmlns="http://www.w3.org/2000/svg" d="M96.9302 71.9807H97.7296V71.7086H96.9302V71.3577H97.7903V71.0856H96.6089V72.6851H97.8206V72.413H96.9302V71.9807Z" fill="#AFB1B8"/>
<path xmlns="http://www.w3.org/2000/svg" d="M101.023 71.9807C101.302 71.9375 101.443 71.79 101.443 71.5357C101.451 71.4677 101.441 71.3987 101.413 71.3361C101.386 71.2735 101.342 71.2194 101.286 71.1797C101.141 71.107 100.98 71.0745 100.818 71.0856H100.14V72.6851H100.462V72.0163H100.525C100.593 72.0121 100.662 72.0243 100.725 72.0519C100.772 72.0809 100.811 72.1211 100.839 72.1689L101.188 72.6775H101.572L101.377 72.3647C101.291 72.2103 101.17 72.0787 101.023 71.9807ZM100.699 71.7595H100.462V71.3577H100.715C100.825 71.3488 100.936 71.3618 101.041 71.3959C101.064 71.4165 101.083 71.4422 101.095 71.471C101.107 71.4998 101.113 71.531 101.111 71.5623C101.11 71.5936 101.101 71.6241 101.087 71.6516C101.072 71.6792 101.051 71.703 101.026 71.7214C100.92 71.7537 100.81 71.7667 100.699 71.7595Z" fill="#AFB1B8"/>
<path xmlns="http://www.w3.org/2000/svg" d="M104.11 71.9807H104.906V71.7086H104.11V71.3577H104.97V71.0856H103.786V72.6851H105V72.413H104.11V71.9807Z" fill="#AFB1B8"/>
</symbol>

<symbol id="client3">
<rect xmlns="http://www.w3.org/2000/svg" x="0.5" y="0.5" width="169" height="91" rx="3.5" stroke="#AFB1B8"/>
<path xmlns="http://www.w3.org/2000/svg" d="M68.4063 65.1014C68.4222 65.1018 68.4379 65.1049 68.4524 65.1106C68.4669 65.1163 68.4799 65.1245 68.4908 65.1346L68.7089 65.3431C68.5396 65.5118 68.3304 65.6468 68.0955 65.7388C67.8204 65.8391 67.5239 65.8875 67.2257 65.8809C66.9455 65.8859 66.6671 65.8408 66.4078 65.7482C66.1739 65.6632 65.9638 65.5356 65.7916 65.3739C65.6159 65.2062 65.4805 65.0096 65.3935 64.7958C65.2982 64.5574 65.2512 64.3065 65.2545 64.0542C65.2506 63.8003 65.3015 63.548 65.4044 63.3103C65.4997 63.0951 65.6433 62.8986 65.827 62.7322C66.0132 62.5691 66.2359 62.4408 66.4814 62.3555C66.7499 62.265 67.0359 62.22 67.3239 62.2228C67.5914 62.2172 67.8575 62.2582 68.1064 62.3436C68.3223 62.425 68.5206 62.538 68.6926 62.6777L68.5099 62.9004C68.4973 62.9161 68.4816 62.9297 68.4635 62.9407C68.442 62.9535 68.4159 62.9594 68.3899 62.9573C68.3616 62.9556 68.3343 62.9474 68.3109 62.9336L68.2127 62.8743L68.0764 62.7985C68.0175 62.7704 67.9565 62.7458 67.8937 62.7251C67.8128 62.6999 67.7299 62.6801 67.6456 62.6659C67.5386 62.6487 67.4299 62.6408 67.3211 62.6422C67.1138 62.6399 66.908 62.6737 66.7159 62.7417C66.5367 62.8046 66.375 62.8999 66.2415 63.0212C66.1055 63.1503 66.0007 63.3018 65.9334 63.4667C65.8566 63.6553 65.8187 63.8542 65.8216 64.0542C65.8183 64.2574 65.8561 64.4595 65.9334 64.6513C65.9999 64.8147 66.1027 64.9653 66.236 65.0943C66.3609 65.2146 66.5157 65.3086 66.6886 65.3692C66.8666 65.4333 67.0576 65.4655 67.2503 65.4639C67.3615 65.4654 67.4728 65.4591 67.5829 65.445C67.7627 65.4259 67.9351 65.3716 68.0873 65.2862C68.1636 65.2425 68.2356 65.1934 68.3027 65.1393C68.3307 65.1161 68.3676 65.1026 68.4063 65.1014Z" fill="#AFB1B8"/>
<path xmlns="http://www.w3.org/2000/svg" d="M74.7044 64.0538C74.7078 64.3052 74.6579 64.5549 74.5571 64.7906C74.4683 65.0043 74.3283 65.1993 74.1465 65.3626C73.9646 65.526 73.745 65.654 73.502 65.7382C72.9682 65.9151 72.3781 65.9151 71.8443 65.7382C71.603 65.6527 71.3848 65.5244 71.2036 65.3615C71.0219 65.1952 70.8809 64.9986 70.7892 64.7835C70.5928 64.3063 70.5928 63.7847 70.7892 63.3076C70.8822 63.0923 71.023 62.8951 71.2036 62.7271C71.3863 62.5694 71.6044 62.446 71.8443 62.3647C72.3775 62.1846 72.9689 62.1846 73.502 62.3647C73.7442 62.4502 73.9633 62.5784 74.1455 62.7414C74.325 62.906 74.4649 63.1001 74.5571 63.3123C74.6582 63.5495 74.7081 63.8009 74.7044 64.0538ZM74.1318 64.0538C74.1361 63.8527 74.1011 63.6525 74.0282 63.4615C73.9671 63.298 73.8678 63.1472 73.7365 63.0185C73.6087 62.8968 73.4513 62.8013 73.2757 62.739C72.8879 62.6095 72.4585 62.6095 72.0706 62.739C71.8951 62.8013 71.7377 62.8968 71.6099 63.0185C71.4767 63.1464 71.3764 63.2974 71.3154 63.4615C71.1767 63.8472 71.1767 64.2604 71.3154 64.6461C71.377 64.81 71.4773 64.9609 71.6099 65.0891C71.7379 65.2101 71.8953 65.3048 72.0706 65.3663C72.4592 65.4925 72.8872 65.4925 73.2757 65.3663C73.4511 65.3048 73.6085 65.2101 73.7365 65.0891C73.8672 64.9601 73.9665 64.8094 74.0282 64.6461C74.1014 64.4552 74.1364 64.2549 74.1318 64.0538Z" fill="#AFB1B8"/>
<path xmlns="http://www.w3.org/2000/svg" d="M79.0013 64.6747L79.0586 64.8074C79.0804 64.76 79.0995 64.7173 79.1213 64.6747C79.1421 64.6302 79.1657 64.5867 79.1922 64.5444L80.5854 62.3438C80.6127 62.3059 80.6372 62.2823 80.6645 62.2751C80.7015 62.2653 80.7403 62.2613 80.779 62.2633H81.1907V65.8425H80.7026V63.2108C80.7026 63.1776 80.7026 63.1397 80.7026 63.0995C80.7 63.0585 80.7 63.0173 80.7026 62.9763L79.3012 65.2077C79.2834 65.2411 79.255 65.2694 79.2192 65.2891C79.1834 65.3089 79.1418 65.3192 79.0995 65.319H79.0204C78.9779 65.3195 78.9362 65.3093 78.9004 65.2895C78.8646 65.2697 78.8362 65.2413 78.8186 65.2077L77.3763 62.9621C77.3763 63.0047 77.3763 63.0474 77.3763 63.09C77.3763 63.1326 77.3763 63.1705 77.3763 63.2037V65.8354H76.9047V62.2633H77.3164C77.355 62.2613 77.3938 62.2653 77.4309 62.2751C77.4647 62.2897 77.4916 62.314 77.5072 62.3438L78.9304 64.5468C78.9584 64.5875 78.9821 64.6303 79.0013 64.6747Z" fill="#AFB1B8"/>
<path xmlns="http://www.w3.org/2000/svg" d="M84.2443 64.4969V65.8376H83.699V62.2632H84.915C85.1446 62.2594 85.3735 62.2857 85.5939 62.3413C85.7704 62.3848 85.9341 62.4607 86.0738 62.564C86.1949 62.6608 86.2883 62.7808 86.3464 62.9146C86.4108 63.0604 86.4423 63.2156 86.4391 63.3717C86.4415 63.5285 86.4072 63.684 86.3383 63.8289C86.2727 63.966 86.172 64.0884 86.0438 64.1866C85.9039 64.2941 85.7395 64.3749 85.5612 64.4234C85.3489 64.4824 85.1269 64.5104 84.9041 64.5063L84.2443 64.4969ZM84.2443 64.1131H84.9041C85.0475 64.1148 85.1901 64.0964 85.3267 64.0587C85.4394 64.0257 85.5433 63.9733 85.6321 63.9047C85.714 63.8391 85.7775 63.7581 85.8175 63.6678C85.8621 63.5723 85.8844 63.4701 85.8829 63.367C85.8893 63.2676 85.8706 63.1683 85.8282 63.0758C85.7859 62.9834 85.7208 62.9 85.6376 62.8317C85.4293 62.6904 85.1676 62.6219 84.9041 62.6398H84.2443V64.1131Z" fill="#AFB1B8"/>
<path xmlns="http://www.w3.org/2000/svg" d="M91.5731 65.8424H91.1423C91.0991 65.8438 91.0566 65.8321 91.0223 65.8092C90.9914 65.7869 90.9671 65.7585 90.9514 65.7263L90.5806 64.8616H88.7185L88.334 65.7263C88.3199 65.7579 88.2964 65.7857 88.2659 65.8069C88.2312 65.8311 88.1877 65.8437 88.1432 65.8424H87.7124L89.3483 62.2628H89.9154L91.5731 65.8424ZM88.8739 64.5134H90.4116L89.7627 63.0564C89.7131 62.9468 89.6721 62.8344 89.64 62.72L89.5773 62.9072C89.5582 62.964 89.5364 63.0162 89.5173 63.0588L88.8739 64.5134Z" fill="#AFB1B8"/>
<path xmlns="http://www.w3.org/2000/svg" d="M93.9288 62.2795C93.9614 62.295 93.9894 62.3169 94.0106 62.3434L96.3962 65.0417C96.3962 64.9991 96.3962 64.9564 96.3962 64.9161C96.3962 64.8759 96.3962 64.8356 96.3962 64.7977V62.2629H96.8843V65.8424H96.6116C96.5729 65.8434 96.5345 65.8361 96.4998 65.8211C96.4662 65.804 96.4365 65.7815 96.4126 65.7548L94.0297 63.0589C94.0323 63.0999 94.0323 63.141 94.0297 63.1821C94.0297 63.2223 94.0297 63.2579 94.0297 63.291V65.8424H93.5416V62.2629H93.8306C93.8644 62.2621 93.8979 62.2677 93.9288 62.2795Z" fill="#AFB1B8"/>
<path xmlns="http://www.w3.org/2000/svg" d="M100.903 64.4188V65.8402H100.358V64.4188L98.85 62.2631H99.3381C99.3801 62.2609 99.4217 62.2718 99.4553 62.2938C99.485 62.3168 99.5099 62.3441 99.5289 62.3744L100.472 63.765C100.51 63.8242 100.543 63.8787 100.57 63.9308C100.598 63.9829 100.62 64.0327 100.639 64.0824L100.71 63.9284C100.736 63.8721 100.767 63.8175 100.802 63.765L101.732 62.3649C101.751 62.337 101.775 62.3115 101.803 62.2891C101.835 62.2646 101.877 62.2518 101.92 62.2536H102.414L100.903 64.4188Z" fill="#AFB1B8"/>
<path xmlns="http://www.w3.org/2000/svg" d="M78.7314 56.2561C78.9686 56.2822 79.2085 56.3035 79.4512 56.3225C83.13 54.8926 86.2422 52.5523 88.3986 49.5942C90.5551 46.636 91.6602 43.1912 91.5758 39.6904L87.5216 36.1678C88.3459 39.8951 87.9603 43.7482 86.4079 47.2959C84.8555 50.8437 82.1975 53.9461 78.7314 56.2561Z" fill="#AFB1B8"/>
<path xmlns="http://www.w3.org/2000/svg" d="M77.2837 56.0923L77.3928 56.1112C81.0966 53.8094 83.9205 50.5951 85.4993 46.8839C87.078 43.1727 87.3389 39.1353 86.2483 35.2939L80.4737 30.2767C82.8094 34.4008 83.7495 39.0162 83.1848 43.5862C82.6201 48.1562 80.5737 52.493 77.2837 56.0923Z" fill="#AFB1B8"/>
<path xmlns="http://www.w3.org/2000/svg" d="M96.8679 43.8265C95.8868 47.6731 93.5041 51.1423 90.0735 53.7189C89.0716 54.4755 87.9909 55.1496 86.8454 55.7324C89.6389 55.019 92.2065 53.7578 94.3502 52.046C96.494 50.3341 98.1566 48.2174 99.21 45.859L96.8679 43.8265Z" fill="#AFB1B8"/>
<path xmlns="http://www.w3.org/2000/svg" d="M95.9491 43.2601L92.6146 40.3629C92.5509 43.666 91.4701 46.894 89.4846 49.7114C87.4991 52.5287 84.6814 54.8327 81.3243 56.3837H81.3406C82.0888 56.3835 82.8362 56.3447 83.5791 56.2676C86.7165 55.155 89.488 53.3849 91.6465 51.1152C93.8049 48.8455 95.2831 46.1469 95.9491 43.2601Z" fill="#AFB1B8"/>
<path xmlns="http://www.w3.org/2000/svg" d="M77.7663 28.1609L73.7883 24.7C70.2322 25.8939 67.1738 27.9928 65.0134 30.722C62.8529 33.4512 61.6912 36.6835 61.6801 39.9959V39.9959C61.6934 43.656 63.1113 47.2077 65.7093 50.0888C68.3073 52.9699 71.9371 55.016 76.0241 55.903C79.6725 52.041 81.8086 47.2687 82.1219 42.2798C82.4352 37.2908 80.9094 32.3449 77.7663 28.1609Z" fill="#AFB1B8"/>
<path xmlns="http://www.w3.org/2000/svg" d="M105.14 42.7273C105.126 38.3848 103.134 34.2238 99.5997 31.1532C96.0655 28.0826 91.2763 26.352 86.2783 26.3395C83.9688 26.3374 81.6789 26.7077 79.5248 27.4315L103.88 48.5926C104.714 46.7221 105.141 44.7333 105.14 42.7273Z" fill="#AFB1B8"/>
</symbol>

<symbol id="client4">
<rect xmlns="http://www.w3.org/2000/svg" x="0.5" y="0.5" width="169" height="91" rx="3.5" stroke="#2196F3"/>
<path xmlns="http://www.w3.org/2000/svg" d="M56.1462 37.1028H56.1433C53.7453 37.1028 51.8013 38.8304 51.8013 40.9615V40.964C51.8013 43.0951 53.7453 44.8227 56.1433 44.8227H56.1462C58.5442 44.8227 60.4882 43.0951 60.4882 40.964V40.9615C60.4882 38.8304 58.5442 37.1028 56.1462 37.1028Z" fill="#2196F3"/>
<path xmlns="http://www.w3.org/2000/svg" d="M88.195 35.8693C88.1882 32.9093 86.8623 30.0722 84.5074 27.979C82.1525 25.8857 78.9604 24.7067 75.6297 24.7V24.7C72.298 24.7053 69.1045 25.8837 66.7484 27.9772C64.3922 30.0706 63.0655 32.9084 63.0587 35.8693V52.1921C63.0587 52.1921 88.1922 49.7044 88.195 35.8718V35.8693Z" fill="#2196F3"/>
<path xmlns="http://www.w3.org/2000/svg" d="M43 57.5495C43.006 59.6091 43.9291 61.5828 45.5676 63.0394C47.2061 64.496 49.4267 65.317 51.7442 65.3231C54.0612 65.317 56.2814 64.4963 57.9197 63.0403C59.5581 61.5843 60.4816 59.6112 60.4884 57.552V46.1943C60.4884 46.1943 43 47.9266 43 57.5495ZM51.7442 59.5844C51.2913 59.5844 50.8486 59.4651 50.472 59.2415C50.0955 59.0179 49.802 58.7001 49.6287 58.3282C49.4554 57.9564 49.41 57.5472 49.4984 57.1525C49.5867 56.7577 49.8048 56.3951 50.125 56.1105C50.4453 55.8259 50.8533 55.6321 51.2975 55.5536C51.7416 55.4751 52.202 55.5154 52.6205 55.6694C53.0389 55.8234 53.3965 56.0843 53.6481 56.4189C53.8997 56.7535 54.034 57.147 54.034 57.5495C54.0351 57.8173 53.9767 58.0828 53.8622 58.3306C53.7476 58.5783 53.5791 58.8036 53.3664 58.9933C53.1536 59.1831 52.9008 59.3337 52.6224 59.4364C52.3441 59.5392 52.0456 59.5921 51.7442 59.5921V59.5844Z" fill="#2196F3"/>
<path xmlns="http://www.w3.org/2000/svg" d="M69.4177 58.4637H67.7302V60.2069H66.8513V55.9413H69.6286V56.6532H67.7302V57.7548H69.4177V58.4637ZM73.6423 58.1708C73.6423 58.5907 73.5681 58.9589 73.4196 59.2753C73.2712 59.5917 73.0583 59.8358 72.7809 60.0077C72.5056 60.1796 72.1891 60.2655 71.8317 60.2655C71.4782 60.2655 71.1628 60.1805 70.8854 60.0106C70.6081 59.8407 70.3932 59.5985 70.2409 59.2841C70.0886 58.9677 70.0114 58.6044 70.0095 58.1942V57.9833C70.0095 57.5634 70.0847 57.1942 70.235 56.8759C70.3874 56.5555 70.6013 56.3104 70.8766 56.1405C71.154 55.9686 71.4704 55.8827 71.8259 55.8827C72.1813 55.8827 72.4968 55.9686 72.7722 56.1405C73.0495 56.3104 73.2634 56.5555 73.4138 56.8759C73.5661 57.1942 73.6423 57.5624 73.6423 57.9803V58.1708ZM72.7516 57.9774C72.7516 57.5302 72.6716 57.1903 72.5114 56.9579C72.3513 56.7255 72.1227 56.6093 71.8259 56.6093C71.5309 56.6093 71.3034 56.7245 71.1432 56.955C70.9831 57.1835 70.902 57.5194 70.9001 57.9628V58.1708C70.9001 58.6063 70.9802 58.9442 71.1403 59.1844C71.3005 59.4247 71.5309 59.5448 71.8317 59.5448C72.1266 59.5448 72.3532 59.4296 72.5114 59.1991C72.6696 58.9667 72.7497 58.6288 72.7516 58.1854V57.9774ZM76.4929 59.0878C76.4929 58.9218 76.4343 58.7948 76.3171 58.7069C76.1999 58.6171 75.989 58.5233 75.6843 58.4257C75.3796 58.326 75.1384 58.2284 74.9606 58.1327C74.4763 57.871 74.2341 57.5184 74.2341 57.0751C74.2341 56.8446 74.2985 56.6395 74.4274 56.4598C74.5583 56.2782 74.7448 56.1366 74.987 56.035C75.2311 55.9335 75.5046 55.8827 75.8073 55.8827C76.112 55.8827 76.3835 55.9384 76.6218 56.0497C76.86 56.1591 77.0446 56.3143 77.1755 56.5155C77.3083 56.7167 77.3747 56.9452 77.3747 57.201H76.4958C76.4958 57.0057 76.4343 56.8544 76.3112 56.7469C76.1882 56.6376 76.0153 56.5829 75.7927 56.5829C75.5778 56.5829 75.4108 56.6288 75.2917 56.7206C75.1725 56.8104 75.113 56.9296 75.113 57.078C75.113 57.2167 75.1823 57.3329 75.321 57.4266C75.4616 57.5204 75.6677 57.6083 75.9391 57.6903C76.4391 57.8407 76.8034 58.0272 77.0319 58.2499C77.2604 58.4725 77.3747 58.7499 77.3747 59.0819C77.3747 59.451 77.235 59.7411 76.9557 59.952C76.6765 60.161 76.3005 60.2655 75.8278 60.2655C75.4997 60.2655 75.2009 60.2059 74.9313 60.0868C74.6618 59.9657 74.4557 59.8007 74.3132 59.5917C74.1725 59.3827 74.1022 59.1405 74.1022 58.8651H74.9841C74.9841 59.3358 75.2653 59.5712 75.8278 59.5712C76.0368 59.5712 76.1999 59.5292 76.3171 59.4452C76.4343 59.3593 76.4929 59.2401 76.4929 59.0878ZM81.1833 56.6532H79.8766V60.2069H78.9977V56.6532H77.7087V55.9413H81.1833V56.6532ZM84.2536 58.3583H82.5661V59.5009H84.5466V60.2069H81.6872V55.9413H84.5407V56.6532H82.5661V57.6698H84.2536V58.3583ZM86.6413 58.6454H85.9411V60.2069H85.0622V55.9413H86.6472C87.1511 55.9413 87.5397 56.0536 87.8132 56.2782C88.0866 56.5028 88.2233 56.8202 88.2233 57.2303C88.2233 57.5214 88.1599 57.7645 88.0329 57.9598C87.9079 58.1532 87.7175 58.3075 87.4616 58.4227L88.3845 60.1659V60.2069H87.4411L86.6413 58.6454ZM85.9411 57.9335H86.6501C86.8708 57.9335 87.0417 57.8778 87.1628 57.7665C87.2839 57.6532 87.3444 57.4979 87.3444 57.3007C87.3444 57.0995 87.2868 56.9413 87.1716 56.826C87.0583 56.7108 86.8835 56.6532 86.6472 56.6532H85.9411V57.9335ZM91.2673 58.704V60.2069H90.3884V55.9413H92.0524C92.3727 55.9413 92.654 55.9999 92.8962 56.1171C93.1403 56.2343 93.3278 56.4012 93.4587 56.618C93.5895 56.8329 93.655 57.078 93.655 57.3534C93.655 57.7714 93.5114 58.1014 93.2243 58.3436C92.9391 58.5839 92.5436 58.704 92.0378 58.704H91.2673ZM91.2673 57.9921H92.0524C92.2849 57.9921 92.4616 57.9374 92.5827 57.828C92.7057 57.7186 92.7673 57.5624 92.7673 57.3593C92.7673 57.1503 92.7057 56.9813 92.5827 56.8524C92.4597 56.7235 92.2897 56.6571 92.0729 56.6532H91.2673V57.9921ZM96.8278 58.3583H95.1403V59.5009H97.1208V60.2069H94.2614V55.9413H97.1149V56.6532H95.1403V57.6698H96.8278V58.3583ZM100.906 56.6532H99.5993V60.2069H98.7204V56.6532H97.4313V55.9413H100.906V56.6532ZM103.976 58.3583H102.289V59.5009H104.269V60.2069H101.41V55.9413H104.263V56.6532H102.289V57.6698H103.976V58.3583ZM106.364 58.6454H105.664V60.2069H104.785V55.9413H106.37C106.874 55.9413 107.262 56.0536 107.536 56.2782C107.809 56.5028 107.946 56.8202 107.946 57.2303C107.946 57.5214 107.883 57.7645 107.756 57.9598C107.631 58.1532 107.44 58.3075 107.184 58.4227L108.107 60.1659V60.2069H107.164L106.364 58.6454ZM105.664 57.9335H106.373C106.593 57.9335 106.764 57.8778 106.885 57.7665C107.007 57.6532 107.067 57.4979 107.067 57.3007C107.067 57.0995 107.009 56.9413 106.894 56.826C106.781 56.7108 106.606 56.6532 106.37 56.6532H105.664V57.9335ZM110.829 59.0878C110.829 58.9218 110.77 58.7948 110.653 58.7069C110.536 58.6171 110.325 58.5233 110.02 58.4257C109.716 58.326 109.474 58.2284 109.297 58.1327C108.812 57.871 108.57 57.5184 108.57 57.0751C108.57 56.8446 108.634 56.6395 108.763 56.4598C108.894 56.2782 109.081 56.1366 109.323 56.035C109.567 55.9335 109.841 55.8827 110.143 55.8827C110.448 55.8827 110.719 55.9384 110.958 56.0497C111.196 56.1591 111.381 56.3143 111.511 56.5155C111.644 56.7167 111.711 56.9452 111.711 57.201H110.832C110.832 57.0057 110.77 56.8544 110.647 56.7469C110.524 56.6376 110.351 56.5829 110.129 56.5829C109.914 56.5829 109.747 56.6288 109.628 56.7206C109.508 56.8104 109.449 56.9296 109.449 57.078C109.449 57.2167 109.518 57.3329 109.657 57.4266C109.798 57.5204 110.004 57.6083 110.275 57.6903C110.775 57.8407 111.139 58.0272 111.368 58.2499C111.596 58.4725 111.711 58.7499 111.711 59.0819C111.711 59.451 111.571 59.7411 111.292 59.952C111.012 60.161 110.636 60.2655 110.164 60.2655C109.836 60.2655 109.537 60.2059 109.267 60.0868C108.998 59.9657 108.792 59.8007 108.649 59.5917C108.508 59.3827 108.438 59.1405 108.438 58.8651H109.32C109.32 59.3358 109.601 59.5712 110.164 59.5712C110.373 59.5712 110.536 59.5292 110.653 59.4452C110.77 59.3593 110.829 59.2401 110.829 59.0878Z" fill="#2196F3"/>
</symbol>

<symbol id="client5">
<rect xmlns="http://www.w3.org/2000/svg" x="0.5" y="0.5" width="169" height="91" rx="3.5" stroke="#AFB1B8"/>
<path xmlns="http://www.w3.org/2000/svg" d="M58.7569 60.7352C59.0006 61.0114 59.1304 61.3572 59.1236 61.7122C59.136 61.9437 59.0914 62.1749 58.993 62.3885C58.8947 62.6021 58.7451 62.7927 58.5554 62.9463C58.082 63.2736 57.4956 63.4336 56.9037 63.3969H54V57.2055H56.8442C57.4057 57.1713 57.9626 57.3167 58.42 57.6168C58.6036 57.7576 58.7491 57.9355 58.8448 58.1365C58.9406 58.3376 58.984 58.5562 58.9716 58.7753C58.9883 59.1168 58.8712 59.4526 58.6413 59.722C58.4206 59.968 58.1156 60.1385 57.7758 60.2059C58.161 60.2703 58.5087 60.4579 58.7569 60.7352ZM55.3511 59.8006H56.5667C56.843 59.8193 57.1174 59.7463 57.3397 59.5949C57.431 59.5192 57.502 59.4252 57.5473 59.3203C57.5925 59.2154 57.6108 59.1024 57.6007 58.99C57.6093 58.878 57.5906 58.7657 57.5461 58.661C57.5015 58.5564 57.4322 58.4622 57.343 58.3851C57.1141 58.2294 56.8312 58.1553 56.5469 58.1764H55.3511V59.8006ZM57.4587 62.175C57.5562 62.0974 57.6329 62.0003 57.6828 61.8912C57.7326 61.7821 57.7543 61.6639 57.7461 61.5458C57.7535 61.4264 57.7309 61.307 57.6799 61.1969C57.6289 61.0868 57.551 60.9888 57.4521 60.9107C57.2142 60.7492 56.9217 60.6699 56.6262 60.6868H55.3511V62.3897H56.6427C56.9334 62.4051 57.2212 62.3293 57.4587 62.175Z" fill="#AFB1B8"/>
<path xmlns="http://www.w3.org/2000/svg" d="M64.5709 63.3969L62.9886 60.9772H62.394V63.3969H61.033V57.2055H63.6096C64.2591 57.164 64.9012 57.3524 65.4034 57.7318C65.7635 58.0678 65.9808 58.5106 66.0159 58.9803C66.051 59.45 65.9018 59.9158 65.595 60.2937C65.2771 60.6271 64.8428 60.8494 64.3661 60.9228L66.0508 63.3969H64.5709ZM62.394 60.1333H63.5072C64.2802 60.1333 64.6667 59.8208 64.6667 59.1957C64.6746 59.0681 64.6534 58.9403 64.6045 58.8205C64.5556 58.7008 64.48 58.5916 64.3826 58.5C64.1383 58.314 63.8237 58.2238 63.5072 58.249H62.3807L62.394 60.1333Z" fill="#AFB1B8"/>
<path xmlns="http://www.w3.org/2000/svg" d="M72.0102 62.1506H69.2981L68.8191 63.3968H67.392L69.8828 57.2749H71.4255L73.9063 63.3968H72.4793L72.0102 62.1506ZM71.6468 61.213L70.6558 58.5997L69.6648 61.213H71.6468Z" fill="#AFB1B8"/>
<path xmlns="http://www.w3.org/2000/svg" d="M81.3224 63.3969H79.9713L76.9421 59.1866V63.3969H75.5943V57.2054H76.9421L79.9713 61.44V57.2054H81.3224V63.3969Z" fill="#AFB1B8"/>
<path xmlns="http://www.w3.org/2000/svg" d="M89.0326 61.9149C88.7532 62.3823 88.3276 62.7626 87.8103 63.0068C87.2222 63.2788 86.5695 63.4128 85.9109 63.397H83.506V57.2055H85.9109C86.5684 57.1898 87.2202 57.3206 87.8103 57.5866C88.3275 57.8253 88.7536 58.2017 89.0326 58.6664C89.3107 59.17 89.4556 59.7263 89.4556 60.2906C89.4556 60.8549 89.3107 61.4113 89.0326 61.9149ZM87.4866 61.7667C87.8722 61.3554 88.0842 60.8312 88.0842 60.2891C88.0842 59.7471 87.8722 59.2229 87.4866 58.8116C87.0205 58.439 86.4127 58.2499 85.7952 58.2853H84.8571V62.293H85.7952C86.4127 62.3283 87.0205 62.1392 87.4866 61.7667Z" fill="#AFB1B8"/>
<path xmlns="http://www.w3.org/2000/svg" d="M72.8558 22.7667C72.8558 22.7667 90.2945 28.7949 89.9245 37.518V52.2722C89.9245 52.2722 72.4991 46.2411 72.8624 37.518L72.8558 22.7667Z" fill="#AFB1B8"/>
<path xmlns="http://www.w3.org/2000/svg" d="M105.46 48.8181C108.754 46.7428 112.563 45.4574 116.54 45.0796V40.4609C111.958 42.0779 108.071 45.0098 105.46 48.8181Z" fill="#AFB1B8"/>
<path xmlns="http://www.w3.org/2000/svg" d="M103.482 50.2095C106.177 45.2396 110.85 41.4046 116.54 39.4932V26.1847C116.54 26.1847 91.705 34.7717 92.2303 47.1939V68.2001C92.2303 68.2001 93.3369 67.816 95.0778 67.0961C95.0778 66.4247 95.0778 65.7472 95.1571 65.0666C95.6711 59.2996 98.6654 53.9556 103.482 50.2095Z" fill="#AFB1B8"/>
<path xmlns="http://www.w3.org/2000/svg" d="M101.12 58.0131C101.25 56.5563 101.541 55.1152 101.989 53.712C98.9896 56.9471 97.1734 60.9614 96.7956 65.1906C96.7592 65.5899 96.7394 65.9891 96.7295 66.4005C98.14 65.7804 99.7818 65.0061 101.506 64.0957C101.066 62.0948 100.936 60.0472 101.12 58.0131Z" fill="#AFB1B8"/>
<path xmlns="http://www.w3.org/2000/svg" d="M102.107 58.0887C101.942 59.929 102.045 61.7813 102.415 63.5966C109.2 59.8793 116.824 54.1355 116.53 47.1939V46.589C111.682 47.0856 107.147 49.026 103.62 52.112C102.795 54.0244 102.285 56.0387 102.107 58.0887Z" fill="#AFB1B8"/>
</symbol>

<symbol id="client6">
<rect xmlns="http://www.w3.org/2000/svg" x="0.5" y="0.5" width="169" height="91" rx="3.5" stroke="#AFB1B8"/>
<path xmlns="http://www.w3.org/2000/svg" d="M85.425 43.4082C84.9819 42.8184 84.7699 42.1213 84.8203 41.4196V38.5364C84.8203 37.6526 85.0207 36.9809 85.4216 36.5214C85.8224 36.0619 86.511 35.8331 87.4871 35.8351C88.4044 35.8351 89.0555 36.0306 89.4405 36.4217C89.8605 36.9207 90.0648 37.5309 90.018 38.1463V38.8239H88.3772V38.1375C88.383 37.9129 88.3671 37.6882 88.3296 37.4659C88.306 37.3138 88.2234 37.1732 88.0952 37.067C87.9267 36.9525 87.7145 36.897 87.5007 36.9115C87.2759 36.897 87.0529 36.9556 86.8756 37.0758C86.7327 37.1935 86.6374 37.3477 86.6038 37.5157C86.5567 37.7511 86.5351 37.9897 86.5393 38.2285V41.7276C86.5134 42.0652 86.5858 42.403 86.7499 42.7102C86.8315 42.8141 86.9448 42.8965 87.0774 42.9483C87.2099 43.0001 87.3564 43.0192 87.5007 43.0035C87.7109 43.0184 87.9195 42.9615 88.0816 42.8451C88.2153 42.7305 88.3013 42.581 88.3262 42.4198C88.3645 42.1877 88.3816 41.9533 88.3772 41.7188V41.009H90.018V41.6572C90.0641 42.2988 89.8648 42.9356 89.4507 43.4698C89.0736 43.8981 88.4315 44.1122 87.4871 44.1122C86.5427 44.1122 85.8292 43.8834 85.425 43.4082Z" fill="#AFB1B8"/>
<path xmlns="http://www.w3.org/2000/svg" d="M92.2569 43.4376C91.8424 42.9888 91.6352 42.3347 91.6352 41.4695V38.4367C91.6352 37.5803 91.8424 36.9321 92.2569 36.4921C92.6713 36.0521 93.3644 35.8331 94.3359 35.8351C95.3007 35.8351 95.9904 36.0541 96.4048 36.4921C96.8193 36.9321 97.0299 37.5803 97.0299 38.4367V41.4695C97.0299 42.3259 96.8193 42.9829 96.398 43.4346C95.9768 43.8863 95.2906 44.1122 94.3359 44.1122C93.3813 44.1122 92.6747 43.8834 92.2569 43.4376ZM95.1003 42.7102C95.2487 42.4291 95.3163 42.1212 95.2974 41.8127V38.0994C95.3164 37.7969 95.2499 37.4949 95.1037 37.2195C95.0205 37.1134 94.9043 37.0296 94.7686 36.9777C94.6328 36.9259 94.4829 36.908 94.3359 36.9262C94.1885 36.9085 94.0383 36.9265 93.9021 36.9783C93.7659 37.0301 93.6491 37.1136 93.5648 37.2195C93.4154 37.4941 93.3477 37.7965 93.3678 38.0994V41.8303C93.3471 42.1389 93.4148 42.4471 93.5648 42.7278C93.6604 42.8224 93.7785 42.8982 93.9109 42.9502C94.0433 43.0021 94.1871 43.029 94.3326 43.029C94.478 43.029 94.6218 43.0021 94.7542 42.9502C94.8866 42.8982 95.0047 42.8224 95.1003 42.7278V42.7102Z" fill="#AFB1B8"/>
<path xmlns="http://www.w3.org/2000/svg" d="M99.0035 35.9236H100.77L102.098 41.5192L103.457 35.9236H105.176L105.35 44.0003H104.079L103.943 38.3871L102.632 44.0003H101.613L100.254 38.3665L100.128 44.0003H98.8439L99.0035 35.9236Z" fill="#AFB1B8"/>
<path xmlns="http://www.w3.org/2000/svg" d="M107.33 35.9236H110.082C111.667 35.9236 112.46 36.688 112.46 38.217C112.46 39.6814 111.625 40.4126 109.956 40.4106H109.019V44.0003H107.32L107.33 35.9236ZM109.681 39.3754C109.849 39.3938 110.019 39.3805 110.181 39.3364C110.342 39.2924 110.49 39.2186 110.615 39.1203C110.81 38.8475 110.896 38.5271 110.86 38.2082C110.869 37.9618 110.841 37.7154 110.778 37.475C110.754 37.3947 110.712 37.3194 110.653 37.2534C110.595 37.1874 110.522 37.1322 110.439 37.0908C110.203 36.9932 109.942 36.9488 109.681 36.9618H109.022V39.3754H109.681Z" fill="#AFB1B8"/>
<path xmlns="http://www.w3.org/2000/svg" d="M114.909 35.9236H116.734L118.606 44.0003H117.022L116.652 42.138H115.025L114.644 44.0003H113.038L114.909 35.9236ZM116.469 41.2025L115.833 37.8123L115.198 41.2025H116.469Z" fill="#AFB1B8"/>
<path xmlns="http://www.w3.org/2000/svg" d="M120.117 35.9236H121.306L123.582 40.5309V35.9236H124.992V44.0003H123.861L121.571 39.1906V44.0003H120.114L120.117 35.9236Z" fill="#AFB1B8"/>
<path xmlns="http://www.w3.org/2000/svg" d="M128.294 40.9208L126.402 35.9349H127.996L129.151 39.1376L130.234 35.9349H131.794L129.925 40.9208V44.0003H128.294V40.9208Z" fill="#AFB1B8"/>
<path xmlns="http://www.w3.org/2000/svg" d="M88.0477 47.5316V47.954H86.6617V51.2359H86.0807V47.954H84.6879V47.5316H88.0477Z" fill="#AFB1B8"/>
<path xmlns="http://www.w3.org/2000/svg" d="M92.3927 51.2362H91.9442C91.8987 51.2386 91.8538 51.2261 91.8185 51.201C91.7846 51.1795 91.7587 51.15 91.7438 51.116L91.3429 50.2361H89.4201L89.0192 51.116C89.0078 51.1528 88.9869 51.1868 88.958 51.2157C88.9225 51.2402 88.8778 51.2527 88.8324 51.2509H88.3839L90.0825 47.5468H90.6737L92.3927 51.2362ZM89.5797 49.8607H91.1833L90.5038 48.3533C90.4537 48.2393 90.4117 48.1227 90.3781 48.0043C90.3543 48.0747 90.3339 48.1421 90.3136 48.2008L90.2524 48.3562L89.5797 49.8607Z" fill="#AFB1B8"/>
<path xmlns="http://www.w3.org/2000/svg" d="M95.3211 50.8724C95.4275 50.8772 95.5341 50.8772 95.6404 50.8724C95.7323 50.8642 95.8232 50.8495 95.9122 50.8284C95.9954 50.8107 96.0772 50.7882 96.1568 50.7609C96.2316 50.7345 96.3063 50.7022 96.3844 50.67V49.8369H95.705C95.6882 49.8378 95.6714 49.8356 95.6556 49.8305C95.6398 49.8255 95.6254 49.8177 95.6133 49.8076C95.6021 49.7993 95.5933 49.7889 95.5874 49.7772C95.5815 49.7655 95.5787 49.7529 95.5793 49.7401V49.4556H96.8974V50.8753C96.7898 50.9417 96.6762 51.0006 96.5577 51.0513C96.4366 51.1029 96.3104 51.1451 96.1806 51.1774C96.0417 51.2127 95.8996 51.2382 95.7559 51.2537C95.5912 51.2695 95.4257 51.2773 95.26 51.2771C94.967 51.2793 94.6763 51.2325 94.4038 51.1393C94.1495 51.051 93.9184 50.9193 93.7244 50.7521C93.5353 50.5832 93.3864 50.3839 93.2862 50.1655C93.1791 49.9199 93.1261 49.6593 93.1299 49.397C93.1263 49.133 93.1781 48.8706 93.2828 48.6226C93.3805 48.4031 93.5297 48.2033 93.721 48.036C93.9149 47.8693 94.1461 47.7386 94.4005 47.6517C94.6914 47.5572 95.0001 47.5105 95.3109 47.5138C95.4691 47.5137 95.627 47.5245 95.7831 47.5461C95.9212 47.5655 96.0567 47.597 96.1874 47.64C96.3062 47.6785 96.4201 47.7277 96.5271 47.7866C96.6312 47.8445 96.7301 47.9092 96.8227 47.9802L96.6596 48.209C96.6468 48.2299 96.6278 48.2475 96.6045 48.2598C96.5812 48.2722 96.5545 48.279 96.5271 48.2794C96.4895 48.2784 96.453 48.2682 96.4218 48.2501C96.3708 48.2266 96.3165 48.1973 96.2553 48.1621C96.1831 48.123 96.1069 48.0896 96.0277 48.0624C95.9265 48.0273 95.8219 47.9998 95.7152 47.9802C95.5729 47.9576 95.4284 47.9468 95.2837 47.948C95.0596 47.9458 94.8371 47.9807 94.6281 48.0506C94.439 48.1161 94.2686 48.2162 94.1287 48.3439C93.9879 48.4771 93.8803 48.6339 93.8127 48.8045C93.661 49.2056 93.661 49.6381 93.8127 50.0393C93.8871 50.2135 94.0028 50.3724 94.1525 50.5057C94.2918 50.6328 94.4609 50.7328 94.6485 50.799C94.8645 50.8631 95.0934 50.888 95.3211 50.8724Z" fill="#AFB1B8"/>
<path xmlns="http://www.w3.org/2000/svg" d="M100.736 50.8136H102.591V51.2359H100.169V47.5316H100.75L100.736 50.8136Z" fill="#AFB1B8"/>
<path xmlns="http://www.w3.org/2000/svg" d="M104.521 51.2359H103.94V47.5316H104.521V51.2359Z" fill="#AFB1B8"/>
<path xmlns="http://www.w3.org/2000/svg" d="M106.681 47.5492C106.716 47.5662 106.746 47.5892 106.77 47.6167L109.253 50.409C109.25 50.3651 109.25 50.321 109.253 50.277C109.253 50.236 109.253 50.1949 109.253 50.1568V47.517H109.759V51.2362H109.467C109.424 51.2392 109.38 51.2321 109.341 51.2156C109.306 51.1972 109.275 51.1733 109.25 51.1452L106.77 48.3558C106.77 48.3998 106.77 48.4409 106.77 48.482C106.77 48.523 106.77 48.5612 106.77 48.5964V51.2362H106.284V47.5316H106.586C106.619 47.5317 106.651 47.5377 106.681 47.5492Z" fill="#AFB1B8"/>
<path xmlns="http://www.w3.org/2000/svg" d="M114.036 47.5316V47.9393H111.978V49.1624H113.646V49.5554H111.978V50.8195H114.036V51.2272H111.38V47.5316H114.036Z" fill="#AFB1B8"/>
<path xmlns="http://www.w3.org/2000/svg" d="M53.1617 24.6555L78.9568 30.9788V53.1368L53.1617 46.8164V24.6555ZM51.5073 22.7667V47.8928L80.6079 55.0285V29.9054L51.5073 22.7667Z" fill="#AFB1B8"/>
<path xmlns="http://www.w3.org/2000/svg" d="M67.1039 66.6922L38 59.5505V34.4271L67.1039 41.5659V66.6922Z" fill="#AFB1B8"/>
<path xmlns="http://www.w3.org/2000/svg" d="M51.9897 24.371L77.4484 30.615L66.6215 39.9649L41.1594 33.7179L51.9897 24.371ZM51.5073 22.7667L38 34.4277L67.1039 41.5662L80.6078 29.9053L51.5073 22.7667Z" fill="#AFB1B8"/>
<path xmlns="http://www.w3.org/2000/svg" d="M68.7414 65.2788L80.6078 55.0315L68.7414 52.1193V65.2788Z" fill="#AFB1B8"/>
</symbol>
</defs>
</svg>